<svg width="22" height="20" viewBox="0 0 22 20" fill="none" xmlns="http://www.w3.org/2000/svg">
    <path d="M16 0C13.9 0 12.074 1.00731 11 2.69539C9.926 1.00731 8.1 0 6 0C4.40927 0.0019706 2.88422 0.675006 1.75941 1.87146C0.634589 3.06792 0.00185261 4.6901 0 6.38214C0 9.48812 1.82 12.7207 5.41 15.9883C7.05505 17.4794 8.83201 18.7974 10.716 19.924C10.8033 19.9739 10.9009 20 11 20C11.0991 20 11.1967 19.9739 11.284 19.924C13.168 18.7974 14.945 17.4794 16.59 15.9883C20.18 12.7207 22 9.48812 22 6.38214C21.9981 4.6901 21.3654 3.06792 20.2406 1.87146C19.1158 0.675006 17.5907 0.0019706 16 0ZM11 18.6263C9.359 17.619 1.2 12.309 1.2 6.38214C1.20132 5.02845 1.70746 3.73061 2.60735 2.77341C3.50724 1.81621 4.72737 1.27784 6 1.27643C8.028 1.27643 9.731 2.4284 10.445 4.28348C10.4902 4.40053 10.5671 4.50065 10.6659 4.57111C10.7647 4.64157 10.881 4.67919 11 4.67919C11.119 4.67919 11.2353 4.64157 11.3341 4.57111C11.4329 4.50065 11.5098 4.40053 11.555 4.28348C12.269 2.4284 13.972 1.27643 16 1.27643C17.2726 1.27784 18.4928 1.81621 19.3927 2.77341C20.2925 3.73061 20.7987 5.02845 20.8 6.38214C20.8 12.309 12.641 17.619 11 18.6263Z"
          fill="inherit"/>
</svg>
