<svg width="175" height="42" viewBox="0 0 175 42" fill="none" xmlns="http://www.w3.org/2000/svg">
<path fill-rule="evenodd" clip-rule="evenodd" d="M3.62624 1.38118e-06C1.62352 1.38118e-06 0 1.62104 0 3.62069V38.3793C0 40.379 1.62353 42 3.62624 42H38.4382C40.4409 42 42.0644 40.379 42.0644 38.3793V3.62069C42.0644 1.62104 40.4409 1.38118e-06 38.4382 1.38118e-06H3.62624ZM33.5245 33.6624C34.9708 32.6316 32.0783 27.0651 21.0247 20.9832C32.4915 14.6951 35.1774 9.02551 33.3179 8.30392C31.7683 7.68542 26.6031 10.881 21.0247 20.9832C15.0331 10.2625 9.66132 7.27309 8.42168 8.407C7.28534 9.644 10.2811 15.0043 21.0247 20.9832C10.6944 26.6528 7.49194 31.8069 8.31837 33.3532C9.24811 35.0025 14.8265 32.2193 21.0247 20.9832C26.8098 31.4977 32.0783 34.5902 33.5245 33.6624Z" fill="#C9FA3B"/>
<path d="M69.5513 0H77.239V20.2759H71.9592V6.37241L63.7494 20.2759H58.9627L50.7529 6.37241V20.2759H45.4731V0H53.1607L61.3415 13.9324L69.5513 0Z" fill="#C9FA3B"/>
<path d="M99.0327 0H104.342V7.06759C104.342 14.3669 98.3945 20.2759 91.084 20.2759C83.7735 20.2759 77.8554 14.3669 77.8554 7.06759V0H83.1352V7.06759C83.1352 11.4414 86.7035 15.0041 91.084 15.0041C95.4645 15.0041 99.0327 11.4414 99.0327 7.06759V0Z" fill="#C9FA3B"/>
<path d="M131.426 0V5.30069H112.773L131.426 12.2814V20.2759H104.94V15.0041H123.564L104.94 8.02345V0H131.426Z" fill="#C9FA3B"/>
<path d="M147.893 5.30069H142.613V15.0041H147.893V20.2759H132.025V15.0041H137.305V5.30069H132.025V0H147.893V5.30069Z" fill="#C9FA3B"/>
<path d="M156.927 5.30069C154.229 5.30069 152.053 7.4731 152.053 10.1379C152.053 12.8317 154.229 15.0041 156.927 15.0041H175V20.2759H156.927C151.328 20.2759 146.773 15.7283 146.773 10.1379C146.773 4.57655 151.328 0 156.927 0H175V5.30069H156.927Z" fill="#C9FA3B"/>
<path d="M66.6503 21.7241H71.9592V42H66.6503V34.0924H50.7529V42H45.4731V21.7241H50.7529V28.7917H66.6503V21.7241Z" fill="#C9FA3B"/>
<path d="M93.735 21.7241H99.0438V28.7917C99.0438 36.091 93.0968 42 85.7863 42C78.4758 42 72.5577 36.091 72.5577 28.7917V21.7241H77.8375V28.7917C77.8375 33.1655 81.4058 36.7283 85.7863 36.7283C90.1668 36.7283 93.735 33.1655 93.735 28.7917V21.7241Z" fill="#C9FA3B"/>
<path d="M126.999 27.9228C126.999 29.2841 126.535 30.5586 125.78 31.5724C126.535 32.6731 126.999 33.9766 126.999 35.3959C126.999 39.0455 124.04 42 120.384 42H99.6424V21.7241H120.82C124.214 21.7241 126.999 24.5048 126.999 27.9228ZM104.922 27.0248V28.7917H120.82C121.313 28.7917 121.69 28.3862 121.69 27.9228C121.69 27.4303 121.313 27.0248 120.82 27.0248H104.922ZM120.384 36.7283C121.11 36.7283 121.69 36.12 121.69 35.3959C121.69 34.6717 121.11 34.0924 120.384 34.0924H104.922V36.7283H120.384Z" fill="#C9FA3B"/>
</svg>
